<svg xmlns="http://www.w3.org/2000/svg" xmlns:xlink="http://www.w3.org/1999/xlink" width="360" height="740" viewBox="0 0 360 740">
  <defs>
    <clipPath id="clip-Start">
      <rect width="360" height="740"/>
    </clipPath>
  </defs>
  <g id="Start" clip-path="url(#clip-Start)">
    <rect width="360" height="740" fill="#fff"/>
    <g id="Background">
      <g id="Rectangle_27" data-name="Rectangle 27" fill="#344955" stroke="#707070" stroke-width="1">
        <rect width="360" height="740" rx="12" stroke="none"/>
        <rect x="0.5" y="0.5" width="359" height="739" rx="11.5" fill="none"/>
      </g>
    </g>
    <text id="Heading" transform="translate(79 437)" fill="#f9aa33" font-size="66" font-family="AdobeClean-Bold, Adobe Clean" font-weight="700"><tspan x="0" y="0">Pointer</tspan></text>
    <path id="Icon_material-add" data-name="Icon material-add" d="M68.5,42.357H42.357V68.5H33.643V42.357H7.5V33.643H33.643V7.5h8.714V33.643H68.5Z" transform="translate(28.5 240.5)" fill="#f9aa33"/>
    <path id="Icon_awesome-minus" data-name="Icon awesome-minus" d="M37.712,14.625H2.9a2.9,2.9,0,0,0-2.9,2.9v2.9a2.9,2.9,0,0,0,2.9,2.9H37.712a2.9,2.9,0,0,0,2.9-2.9v-2.9A2.9,2.9,0,0,0,37.712,14.625Z" transform="translate(263.25 259.375)" fill="#f9aa33"/>
    <g id="face-24px" transform="translate(117 215)">
      <path id="Path_3" data-name="Path 3" d="M0,0H126V126H0Z" fill="none"/>
      <path id="Path_4" data-name="Path 4" d="M44.7,61.475A7.625,7.625,0,1,0,52.325,69.1,7.628,7.628,0,0,0,44.7,61.475Zm36.6,0A7.625,7.625,0,1,0,88.925,69.1,7.628,7.628,0,0,0,81.3,61.475ZM63,2a61,61,0,1,0,61,61A61.022,61.022,0,0,0,63,2Zm0,109.8A48.865,48.865,0,0,1,14.2,63a49.457,49.457,0,0,1,.305-5.246A61.376,61.376,0,0,0,46.286,25,60.841,60.841,0,0,0,96.062,50.8a59.539,59.539,0,0,0,13.725-1.586A48.725,48.725,0,0,1,63,111.8Z" fill="#f9aa33"/>
    </g>
  </g>
</svg>
